<?xml version="1.0" standalone="no"?>
<!DOCTYPE svg PUBLIC "-//W3C//DTD SVG 20010904//EN"
 "http://www.w3.org/TR/2001/REC-SVG-20010904/DTD/svg10.dtd">
<svg version="1.0" xmlns="http://www.w3.org/2000/svg"
 width="1280.000000pt" height="1280.000000pt" viewBox="0 0 1280.000000 1280.000000"
 preserveAspectRatio="xMidYMid meet">
<metadata>
Created by potrace 1.14, written by Peter Selinger 2001-2017
</metadata>
<g transform="translate(0.000000,1280.000000) scale(0.100000,-0.100000)"
fill="#000000" stroke="none">
<path d="M4137 10874 c-2 -2 -41 -6 -87 -8 -47 -3 -103 -8 -125 -11 -22 -3
-62 -7 -90 -9 -27 -3 -50 -5 -50 -6 0 -1 -9 -3 -20 -4 -58 -7 -164 -25 -185
-31 -8 -2 -31 -7 -50 -11 -45 -8 -65 -12 -65 -14 0 -1 -9 -3 -20 -5 -32 -4
-63 -12 -170 -40 -55 -15 -104 -28 -110 -29 -5 -2 -17 -6 -25 -9 -12 -4 -144
-48 -185 -61 -43 -13 -214 -81 -273 -107 -35 -16 -66 -29 -69 -29 -9 0 -302
-149 -343 -175 -21 -14 -45 -26 -52 -27 -7 -2 -15 -5 -18 -8 -8 -8 -89 -60
-94 -60 -17 0 -388 -264 -394 -281 -2 -5 -8 -9 -14 -9 -6 0 -18 -8 -27 -18 -9
-10 -26 -25 -38 -33 -48 -33 -166 -142 -308 -284 -171 -171 -234 -240 -332
-365 -6 -8 -31 -40 -55 -70 -24 -30 -60 -77 -79 -105 -18 -27 -36 -52 -39 -55
-24 -22 -240 -371 -240 -388 0 -5 -4 -12 -9 -14 -10 -4 -181 -348 -181 -365 0
-7 -4 -13 -8 -13 -5 0 -9 -6 -9 -12 -1 -12 -72 -198 -94 -243 -12 -25 -98
-291 -104 -319 -2 -12 -4 -21 -5 -21 -1 0 -3 -7 -5 -16 -1 -9 -10 -41 -18 -70
-9 -30 -18 -65 -21 -79 -2 -14 -11 -56 -20 -95 -9 -38 -18 -81 -20 -95 -3 -14
-7 -34 -9 -45 -8 -36 -28 -162 -32 -196 -2 -19 -4 -34 -5 -34 -1 0 -3 -18 -5
-40 -3 -22 -7 -58 -9 -80 -29 -239 -29 -767 0 -965 2 -19 7 -57 10 -85 8 -83
11 -107 24 -175 6 -36 13 -74 15 -85 9 -53 38 -189 57 -264 11 -46 21 -90 22
-97 1 -7 5 -17 9 -20 4 -4 7 -17 7 -29 0 -12 3 -25 7 -29 4 -3 8 -16 10 -28 4
-25 79 -254 93 -283 5 -11 23 -56 39 -101 67 -183 215 -481 354 -709 94 -154
249 -375 269 -383 4 -2 8 -8 8 -13 0 -8 14 -28 45 -63 6 -6 30 -36 55 -66 65
-80 270 -302 313 -339 10 -9 50 -46 88 -82 38 -37 69 -65 69 -63 0 2 8 -4 18
-14 26 -24 69 -61 127 -107 28 -22 52 -42 55 -45 16 -17 231 -170 239 -170 5
0 11 -3 13 -7 4 -9 65 -53 73 -53 3 0 11 -5 18 -10 31 -27 136 -88 141 -83 3
4 6 1 6 -5 0 -7 5 -12 10 -12 6 0 29 -12 51 -26 42 -26 333 -174 343 -174 3 0
29 -11 58 -25 29 -13 87 -37 128 -53 41 -16 84 -33 95 -37 11 -4 25 -9 30 -11
6 -2 44 -15 85 -29 41 -15 86 -29 100 -31 13 -3 30 -10 37 -16 7 -6 13 -8 13
-5 0 3 15 1 33 -4 17 -6 75 -22 127 -35 85 -23 131 -33 210 -49 14 -3 47 -10
74 -15 27 -6 51 -8 54 -6 2 3 12 1 22 -4 9 -5 43 -12 76 -15 81 -8 123 -14
160 -20 129 -20 620 -27 804 -11 52 4 113 9 135 11 22 2 40 4 40 5 0 1 11 3
25 5 53 5 126 16 142 21 9 3 32 7 50 9 18 2 66 10 105 19 94 20 135 28 151 29
6 0 12 4 12 9 0 5 4 7 9 4 5 -3 55 8 112 24 57 17 113 33 125 35 11 3 79 25
150 50 71 25 134 47 140 48 7 2 20 9 30 17 9 8 19 13 21 11 5 -4 48 12 121 45
29 13 55 24 58 24 9 0 324 160 334 170 3 3 21 13 40 24 93 50 260 154 305 192
11 9 30 21 42 27 13 5 23 14 23 19 0 4 5 8 11 8 6 0 16 6 23 12 7 7 25 22 41
33 30 22 183 143 201 160 7 5 40 35 75 65 66 57 303 292 375 371 22 25 80 94
128 155 111 137 119 147 131 166 6 9 37 53 70 99 68 94 82 116 91 142 3 9 10
17 14 17 5 0 12 9 15 20 3 11 9 20 13 20 4 0 7 -469 7 -1041 l-1 -1041 336 5
c184 3 346 8 360 11 22 4 66 9 195 21 17 2 30 4 30 5 0 1 18 3 40 6 22 2 63 8
90 14 28 5 64 12 80 15 34 5 59 10 95 19 14 3 36 8 50 11 14 2 45 9 70 16 25
6 52 12 60 14 43 10 231 66 270 80 25 9 52 18 61 20 31 6 264 100 369 147 93
42 254 122 260 129 3 3 13 8 22 12 30 11 321 188 361 219 20 16 37 27 37 23 0
-3 12 6 27 20 15 14 31 25 34 25 4 0 32 20 62 45 31 25 58 45 62 45 3 0 16 9
28 21 12 11 35 30 51 42 15 12 39 32 52 45 13 13 24 21 24 18 0 -8 98 84 264
249 158 156 204 206 276 295 19 24 47 58 61 75 36 43 119 152 155 205 17 25
56 82 87 128 31 45 53 82 49 82 -4 0 -2 4 4 8 13 9 97 150 156 262 25 47 53
101 64 120 10 19 19 37 19 40 1 3 14 32 29 65 56 119 115 265 108 265 -4 0 -2
4 4 8 12 7 97 251 134 382 28 97 59 218 65 250 3 14 12 57 20 95 22 106 22
107 30 155 4 25 9 54 12 65 2 11 6 40 8 65 3 25 7 59 10 75 5 33 10 81 22 220
16 179 8 662 -13 835 -4 30 -8 66 -9 80 -2 14 -4 25 -5 25 -1 0 -3 16 -5 36
-1 20 -9 70 -15 110 -7 41 -14 83 -16 94 -1 11 -3 20 -4 20 -2 0 -6 19 -14 65
-3 19 -19 89 -36 155 -17 66 -33 133 -36 149 -7 35 -100 323 -114 351 -5 11
-23 56 -39 101 -66 183 -215 480 -354 709 -33 55 -75 120 -92 145 -17 25 -51
74 -75 110 -44 62 -72 99 -97 126 -7 7 -13 15 -13 18 0 5 -18 29 -45 60 -6 6
-30 36 -55 66 -25 30 -65 78 -90 105 -61 68 -367 375 -374 375 -3 0 -14 8 -24
18 -26 24 -69 61 -127 107 -27 22 -52 42 -55 45 -16 17 -231 170 -239 170 -5
0 -11 3 -13 8 -5 10 -66 52 -77 52 -5 0 -11 4 -13 8 -2 5 -29 24 -62 43 -32
19 -79 47 -105 62 -25 15 -60 34 -78 42 -17 8 -35 19 -38 25 -4 6 -10 8 -15 5
-5 -3 -11 -1 -15 5 -5 8 -140 78 -165 85 -3 1 -41 19 -85 39 -44 21 -84 39
-90 40 -12 3 -64 25 -89 38 -10 5 -26 11 -35 13 -9 3 -54 18 -101 36 -133 48
-460 143 -460 133 0 -3 -9 0 -19 6 -11 5 -41 12 -67 15 -26 4 -51 8 -56 11 -9
6 -35 11 -93 19 -22 3 -48 8 -58 11 -16 5 -37 8 -152 19 -22 2 -56 6 -75 9
-93 14 -226 20 -455 21 -256 0 -442 -10 -555 -31 -14 -3 -43 -7 -65 -9 -22 -2
-53 -6 -70 -9 -16 -4 -43 -8 -60 -11 -16 -3 -41 -8 -55 -11 -14 -3 -36 -7 -50
-9 -14 -2 -26 -4 -27 -5 -3 -3 -6 -3 -53 -13 -70 -14 -115 -25 -115 -27 0 -1
-7 -3 -15 -5 -51 -11 -179 -48 -265 -76 -55 -18 -102 -34 -105 -34 -3 -1 -14
-5 -25 -10 -11 -4 -72 -28 -135 -53 -63 -24 -179 -75 -258 -113 -78 -37 -146
-69 -150 -70 -4 0 -19 -10 -34 -20 -14 -10 -29 -19 -32 -19 -7 0 -279 -161
-286 -169 -3 -3 -39 -28 -80 -56 -41 -27 -79 -53 -85 -57 -5 -5 -53 -41 -105
-80 -52 -40 -100 -77 -106 -83 -6 -5 -25 -21 -43 -35 -85 -65 -394 -365 -471
-455 -73 -87 -138 -165 -162 -196 -96 -121 -218 -294 -218 -309 0 -6 -4 -10
-9 -10 -5 0 -20 -20 -32 -45 -12 -25 -27 -45 -33 -45 -8 0 -11 305 -11 1036
l0 1035 -287 -2 c-159 -2 -290 -4 -291 -5z m4628 -698 c36 -5 75 -11 160 -22
30 -3 88 -12 135 -20 14 -2 57 -11 95 -19 39 -9 84 -18 100 -21 17 -3 37 -7
45 -10 16 -6 114 -33 140 -39 8 -2 16 -4 18 -4 1 -1 4 -1 7 -1 3 0 19 -7 35
-15 17 -9 30 -13 30 -11 0 3 30 -6 68 -20 37 -14 81 -30 97 -36 17 -5 39 -14
50 -18 11 -5 49 -21 85 -36 36 -14 97 -41 137 -60 40 -19 77 -34 83 -34 5 0
10 -4 10 -10 0 -5 5 -10 12 -10 16 0 247 -133 358 -207 130 -87 138 -92 196
-138 28 -22 65 -51 84 -65 18 -14 45 -36 60 -50 16 -14 47 -41 71 -60 89 -73
305 -296 405 -420 16 -19 31 -37 35 -40 3 -3 41 -52 83 -110 43 -58 84 -113
92 -123 8 -10 20 -29 26 -43 6 -13 15 -24 20 -24 4 0 8 -5 8 -11 0 -6 14 -30
30 -54 17 -24 30 -48 30 -54 0 -6 4 -11 9 -11 5 0 11 -8 15 -17 3 -10 23 -49
46 -88 56 -98 140 -271 198 -410 31 -74 92 -242 92 -255 0 -6 4 -18 9 -28 11
-20 48 -145 55 -182 3 -14 6 -27 7 -30 1 -3 3 -9 4 -15 2 -5 4 -12 5 -15 4
-12 50 -226 55 -260 2 -14 7 -41 10 -60 3 -19 8 -51 10 -70 3 -19 7 -46 10
-60 5 -27 15 -132 22 -220 14 -195 3 -583 -22 -755 -3 -16 -7 -46 -9 -65 -8
-56 -15 -103 -21 -130 -3 -14 -8 -41 -11 -60 -3 -19 -12 -60 -19 -90 -8 -30
-17 -69 -20 -87 -3 -18 -9 -43 -15 -57 -5 -15 -7 -26 -4 -26 3 0 2 -6 -3 -12
-4 -7 -9 -22 -10 -32 -2 -11 -10 -40 -19 -65 -9 -25 -17 -53 -19 -61 -9 -36
-92 -262 -120 -325 -21 -49 -28 -70 -27 -77 1 -5 -3 -8 -8 -8 -6 0 -10 -6 -10
-12 0 -18 -116 -246 -177 -349 -99 -167 -268 -411 -325 -470 -8 -8 -21 -24
-29 -36 -48 -70 -291 -322 -403 -418 -32 -27 -64 -54 -70 -60 -32 -29 -86 -73
-116 -95 -18 -14 -38 -29 -45 -35 -6 -5 -18 -14 -26 -20 -8 -5 -80 -53 -160
-106 -79 -52 -180 -116 -224 -141 -77 -44 -327 -168 -339 -168 -3 0 -31 -12
-63 -26 -31 -15 -62 -27 -67 -28 -6 -1 -15 -4 -21 -7 -8 -5 -105 -39 -125 -44
-3 -1 -13 -5 -22 -9 -9 -4 -22 -9 -30 -10 -7 -2 -20 -6 -28 -9 -20 -7 -82 -26
-106 -32 -10 -3 -55 -14 -99 -25 -44 -12 -91 -23 -105 -26 -14 -3 -36 -7 -50
-10 -50 -10 -85 -17 -105 -19 -11 -1 -20 -3 -20 -4 0 -1 -13 -4 -30 -6 -16 -3
-46 -7 -65 -10 -19 -2 -66 -7 -105 -11 l-70 -6 0 1968 c-1 1791 -3 2088 -22
2148 -3 11 -7 33 -8 50 -4 40 -16 109 -21 117 -2 4 -6 24 -9 45 -3 22 -10 50
-15 64 -4 14 -20 66 -35 115 -48 157 -152 394 -227 515 -40 64 -112 175 -118
180 -3 3 -27 34 -55 70 -27 36 -61 78 -75 94 -32 38 -231 236 -257 257 -11 9
-55 43 -99 77 -43 33 -87 68 -96 76 -10 9 -21 16 -24 16 -3 0 -37 20 -75 45
-38 25 -73 45 -77 45 -5 0 -14 6 -21 13 -6 6 -15 12 -19 13 -4 0 -59 26 -122
56 -111 54 -323 131 -390 143 -18 3 -37 8 -42 11 -8 5 -29 10 -83 19 -16 3
-55 10 -86 16 -130 22 -230 30 -409 29 -74 -1 -148 -2 -165 -5 -16 -2 -57 -6
-90 -10 -33 -3 -67 -8 -75 -10 -8 -3 -32 -7 -54 -11 -39 -6 -59 -10 -96 -19
-11 -3 -28 -7 -38 -9 -9 -2 -37 -10 -62 -17 -53 -15 -46 -13 -90 -23 -19 -5
-39 -12 -45 -16 -5 -4 -35 -15 -65 -25 -30 -10 -81 -31 -114 -46 -32 -16 -62
-29 -67 -29 -9 0 64 114 93 144 7 8 24 29 38 47 106 140 288 334 424 454 32
28 67 59 79 71 43 40 238 192 313 242 111 74 184 120 184 114 0 -4 4 -2 8 4 7
12 209 124 222 124 4 0 13 7 20 15 7 9 15 13 18 10 3 -3 25 6 48 20 24 14 47
26 51 26 5 1 31 11 58 24 52 23 212 88 230 92 6 1 44 14 85 28 41 15 82 28 90
30 139 38 209 56 225 59 11 2 27 7 35 10 8 3 33 8 55 12 64 10 78 13 105 19
24 6 36 7 130 20 68 10 98 13 180 20 41 4 77 8 78 10 6 6 544 -3 587 -9z
m-4720 -2003 c1 -1099 5 -2009 7 -2023 3 -14 9 -52 13 -85 9 -68 8 -63 30
-170 9 -44 18 -87 20 -95 2 -8 8 -27 14 -42 6 -16 9 -28 6 -28 -4 0 54 -173
85 -250 26 -66 132 -281 162 -330 40 -64 112 -175 118 -180 3 -3 27 -34 55
-70 27 -36 61 -78 75 -94 32 -37 230 -236 257 -257 49 -40 172 -135 189 -147
71 -47 164 -104 212 -128 32 -16 59 -31 62 -34 25 -28 375 -159 495 -186 233
-51 346 -64 565 -64 69 1 145 3 170 5 121 11 151 15 225 29 104 20 114 22 188
41 34 9 67 18 72 19 6 1 15 4 20 7 11 7 70 22 70 18 0 -1 11 4 25 11 14 8 30
15 35 16 6 1 48 18 93 38 46 20 86 36 88 36 8 0 -13 -34 -35 -57 -12 -12 -21
-27 -21 -33 0 -5 -4 -10 -10 -10 -5 0 -10 -6 -10 -14 0 -8 -3 -16 -8 -18 -4
-1 -23 -23 -42 -48 -18 -25 -40 -52 -47 -60 -8 -8 -23 -26 -34 -40 -105 -130
-305 -329 -454 -454 -38 -32 -71 -63 -73 -67 -2 -5 -10 -9 -17 -9 -7 0 -15 -4
-17 -8 -1 -5 -37 -33 -78 -63 -41 -29 -76 -57 -78 -61 -2 -5 -8 -8 -13 -8 -5
0 -31 -16 -58 -35 -26 -19 -53 -35 -60 -35 -6 0 -11 -4 -11 -9 0 -5 -12 -16
-27 -24 -16 -7 -72 -39 -125 -70 -98 -57 -329 -171 -388 -192 -5 -2 -9 -3
-100 -40 -45 -19 -209 -73 -345 -115 -43 -13 -244 -60 -253 -59 -4 1 -9 0 -12
-1 -7 -2 -38 -9 -75 -15 -16 -3 -39 -7 -50 -9 -19 -4 -85 -13 -150 -21 -213
-27 -715 -27 -856 0 -13 3 -44 7 -69 10 -25 3 -56 7 -70 10 -14 2 -41 7 -60 9
-30 5 -123 24 -195 41 -11 3 -29 7 -40 9 -11 3 -47 12 -80 21 -33 9 -64 18
-70 19 -5 1 -14 4 -20 7 -9 6 -62 20 -67 19 -2 0 -34 11 -73 25 -38 15 -83 31
-100 37 -16 5 -39 14 -50 18 -11 5 -49 21 -85 36 -36 14 -97 41 -137 60 -40
19 -77 34 -83 34 -5 0 -10 5 -10 10 0 6 -5 10 -12 10 -24 0 -371 207 -462 277
-13 10 -37 27 -52 38 -35 25 -228 179 -267 214 -100 87 -303 300 -393 411 -16
19 -31 37 -35 40 -6 6 -125 165 -149 200 -8 12 -23 31 -32 42 -10 11 -20 29
-23 39 -4 11 -11 19 -16 19 -5 0 -9 5 -9 11 0 6 -13 30 -30 54 -16 24 -30 48
-30 54 0 6 -4 11 -9 11 -5 0 -11 8 -14 18 -4 9 -18 37 -33 62 -26 44 -155 292
-155 297 1 2 -6 18 -14 35 -55 128 -65 151 -65 158 0 4 -8 25 -17 46 -9 22
-18 44 -19 49 -1 6 -18 55 -37 110 -19 55 -34 102 -34 105 -1 5 -22 81 -29
105 -6 17 -22 87 -34 140 -6 28 -13 61 -16 75 -5 23 -9 44 -30 160 -3 19 -7
49 -9 65 -3 35 -14 109 -20 145 -17 93 -24 562 -11 705 8 90 20 185 32 263 3
20 7 51 10 67 8 68 13 95 18 112 3 10 8 32 10 48 20 116 124 476 163 565 9 19
17 40 18 45 17 66 156 359 253 530 189 335 473 682 767 940 44 39 82 72 85 75
13 14 190 150 216 166 16 10 31 21 34 25 7 8 216 141 275 174 60 34 338 177
345 177 8 1 40 14 103 41 31 14 57 23 57 20 0 -3 6 -1 13 4 9 8 67 31 97 38 3
1 12 5 20 8 8 3 40 13 70 22 30 9 64 21 75 25 21 9 287 75 340 84 17 3 41 7
55 10 14 3 42 7 63 10 20 3 53 9 72 12 60 9 160 20 164 18 2 -2 4 -902 6
-2001z m2320 -391 c-1 -335 -1 -338 -27 -418 -53 -162 -124 -299 -222 -430
-70 -94 -199 -222 -276 -274 -12 -8 -28 -21 -36 -27 -7 -7 -16 -13 -19 -13 -4
0 -19 -9 -34 -20 -52 -36 -196 -103 -291 -134 l-95 -32 -325 1 -325 0 1 25 c8
141 22 229 59 394 12 52 60 187 87 245 17 36 32 71 33 76 5 19 88 160 96 163
5 2 9 8 9 14 0 17 136 190 203 258 78 78 115 112 187 167 30 24 60 47 67 53 7
5 16 10 22 10 5 0 11 3 13 8 4 8 48 35 98 60 19 9 37 20 41 24 18 25 331 139
414 152 17 2 51 9 76 15 26 6 82 13 124 16 43 2 80 7 82 9 2 2 12 2 22 -1 16
-4 17 -28 16 -341z m190 333 c106 -9 277 -43 303 -59 5 -3 20 -7 34 -10 89
-16 319 -128 453 -220 33 -22 64 -47 68 -53 4 -7 12 -13 17 -13 6 0 18 -8 29
-17 10 -10 45 -43 77 -74 101 -96 244 -264 244 -288 0 -5 3 -11 8 -13 7 -3 62
-84 62 -91 0 -3 18 -36 39 -76 35 -63 114 -252 112 -268 0 -2 6 -21 14 -43 8
-22 12 -40 10 -40 -3 0 0 -12 6 -26 5 -15 12 -43 15 -63 3 -20 7 -44 10 -54 7
-22 13 -68 19 -135 2 -28 7 -57 10 -62 3 -6 2 -10 -4 -10 -7 0 -7 -8 -1 -24 6
-17 5 -27 -3 -33 -11 -9 -635 -9 -667 -1 -125 34 -375 150 -388 180 -2 4 -8 8
-14 8 -6 0 -29 15 -52 32 -22 18 -47 37 -54 43 -68 53 -232 231 -232 253 0 6
-4 12 -8 14 -32 13 -192 321 -192 369 0 4 -5 20 -11 36 -7 15 -14 37 -16 48
-8 39 -10 680 -2 691 5 5 23 9 41 7 18 -2 51 -6 73 -8z m-1180 -1754 c0 -3 14
-6 50 -13 11 -3 37 -12 59 -21 21 -9 44 -17 50 -17 7 0 17 -5 24 -12 7 -7 12
-9 12 -5 0 4 15 -1 33 -11 17 -10 57 -32 87 -48 69 -36 139 -84 210 -142 59
-49 200 -192 200 -204 0 -3 6 -13 13 -20 37 -37 167 -256 168 -283 0 -2 11
-30 24 -60 14 -31 25 -64 25 -73 0 -10 4 -22 8 -27 24 -28 30 -127 28 -430 -2
-176 -4 -322 -4 -324 -1 -3 -7 0 -13 6 -8 8 -20 8 -34 3 -13 -5 -26 -6 -29 -3
-3 3 -22 7 -43 9 -99 9 -179 22 -241 40 -30 9 -60 17 -66 18 -114 20 -446 187
-524 263 -7 7 -16 13 -20 13 -6 0 -75 61 -162 143 -170 162 -323 402 -408 637
-37 102 -63 190 -56 190 3 0 0 8 -5 18 -5 9 -12 37 -15 62 -3 25 -8 63 -12 85
-4 22 -7 59 -8 82 0 24 -3 43 -6 43 -5 0 -5 56 -1 80 1 5 656 5 656 1z m2708
-34 c-1 -20 -2 -38 -3 -39 -1 -2 -3 -28 -5 -58 -2 -30 -6 -68 -10 -85 -3 -16
-8 -46 -11 -65 -8 -61 -44 -192 -76 -280 -35 -97 -130 -294 -149 -310 -3 -3
-12 -16 -19 -30 -15 -28 -111 -159 -150 -204 -63 -72 -187 -189 -242 -227 -18
-13 -35 -26 -38 -29 -3 -4 -34 -25 -70 -48 -36 -23 -69 -45 -75 -49 -17 -14
-198 -100 -240 -114 -22 -7 -45 -16 -50 -20 -6 -4 -55 -19 -110 -33 -138 -35
-183 -43 -291 -50 -39 -3 -75 -6 -80 -7 -29 -5 -30 8 -29 344 0 255 4 348 13
365 7 12 11 22 8 22 -2 0 5 24 16 53 11 28 23 63 28 77 9 29 64 146 82 175 93
145 142 210 223 290 62 61 153 139 168 144 7 2 21 12 32 21 18 16 40 29 150
90 26 14 141 63 155 66 3 0 12 3 20 6 45 18 83 27 90 23 5 -3 11 -2 14 3 2 4
150 8 327 7 l322 0 0 -38z"/>
</g>
</svg>
